<svg  xmlns="http://www.w3.org/2000/svg" viewBox="0 0 800 550"><defs><style>.cls-1{font-size:116.98px;fill:#f90606;font-family:Impact;}.cls-2{fill:#0f4549;}.cls-3{fill:#104549;}.cls-4{fill:#10464a;}.cls-5{fill:#12474b;}.cls-6{fill:#709093;}.cls-7{fill:#aabcbe;}.cls-8{fill:#1c4e52;}.cls-9{fill:#426b6e;}.cls-10{fill:#d2dbdc;}.cls-11{fill:#87a3a5;}.cls-12{fill:#b8c7c9;}.cls-13{fill:#d1dadb;}.cls-14{fill:#9fb4b5;}.cls-15{fill:#2c5c60;}.cls-16{fill:#8fa6a8;}.cls-17{fill:#3e6b6e;}.cls-18{fill:#9ab0b1;}.cls-19{fill:#467174;}.cls-20{fill:#426a6d;}.cls-21{fill:#8fabad;}.cls-22{fill:#769699;}.cls-23{fill:#4d7578;}.cls-24{fill:#577d80;}.cls-25{fill:#608083;}.cls-26{fill:#628689;}.cls-27{fill:#8da7a9;}.cls-28{fill:#69878a;}.cls-29{fill:#65888b;}.cls-30{fill:#7f9a9c;}.cls-31{fill:#aec0c1;}.cls-32{fill:#dbe1e1;}.cls-33{fill:#92aaac;}.cls-34{fill:#c6d0d1;}.cls-35{fill:#809496;}.cls-36{fill:#6b8e91;}.cls-37{fill:#aabbbd;}.cls-38{fill:#b3c8ca;}.cls-39{fill:#4b7a7d;}</style></defs><g id="Layer_2" data-name="Layer 2"><text class="cls-1" transform="translate(22.81 214.22)">FLIX</text><path class="cls-2" d="M746.58,364.18c.34-2.71.63-5.43,2.07-7.85.16-.89.28-1.78.5-2.66,4.38-17.77,9.38-35.39,12.92-53.37,1.19-6,2.59-12.07,2.7-18.26.06-3.28-1.1-4.46-3.95-4.77s-4.16.66-5.12,3.5c-6.94,20.41-14.25,40.7-20.3,61.41-1.61,7.33-3,14.71-5.26,21.88-1,4.23-2.17,8.44-2.93,12.72a13.41,13.41,0,0,1-4.08,7.45c-4.89,4.87-9.76,9.77-14.44,14.83-6.15,6.67-12.36,13.32-16,21.86a33.46,33.46,0,0,0-3,11.51c-.3,6.55,3.32,9.79,9.84,9a14.81,14.81,0,0,0,7.39-3.2A72.62,72.62,0,0,0,717,428.35c10.11-11.52,16.84-24.9,21.7-39.3,2.79-8.24,5.3-16.58,7.93-24.87Zm-24,30.44a3.36,3.36,0,0,1-1.15,2.26c-3.34,11.77-8.25,22.79-15.7,32.59a36.29,36.29,0,0,1-5.92,6.34c-.65.53-1.33,1.44-2.31.84a2.71,2.71,0,0,1-1.1-2.38,19.18,19.18,0,0,1,1.74-7.89,53.07,53.07,0,0,1,5.88-11c5-6.86,10.1-13.7,16-19.85h0c.42-.69.83-1.39,1.24-2.08h0c.29-.83,1-1.84,1.69-1.37C724,392.79,723.34,393.85,722.57,394.62Z" transform="translate(-553.62 -257.19)"/><path class="cls-3" d="M617.66,281.18c1.49-5.78,3-11.57,4.49-17.33.47-1.75,1.12-3.45,1.75-5.14.55-1.47,1.83-1.58,3.15-1.5a2.4,2.4,0,0,1,2.37,2.47,41.91,41.91,0,0,1-.27,9.23,283.14,283.14,0,0,1-4.87,32.78,24.86,24.86,0,0,0-.32,3.24c-1,1.71.5,3.47-.09,5.2a132.3,132.3,0,0,1-3,16.87c-6.23,17.18-9.8,35.19-16.23,52.31-.57,1.52-1.07,3.07-1.63,4.6a5.49,5.49,0,0,1-5.46,3.72c-4.6.12-7.19-1.12-5.62-6.28,2.42-8,4.15-16.12,6.66-24a503.11,503.11,0,0,0,14.64-57.83c.6-3.19,1.48-6.33,2.23-9.49C615.31,286.83,616.39,284,617.66,281.18Z" transform="translate(-553.62 -257.19)"/><path class="cls-4" d="M693.83,372.67c-.72.54-1.41,1.14-2.18,1.61-6.11,3.71-11.44,1.45-13.14-5.57a36.29,36.29,0,0,1-.77-12.45c2.24-20.72,4.84-41.39,11.46-61.31,2.29-6.87,4.21-13.86,6.26-20.81.36-1.21.5-2.48.75-3.73,1-1.65-.82-4.53,2.23-5.33,2.58-.68,3.35,1.16,4.12,3,.87,9.14-.92,18.05-2.59,26.92-3.49,18.66-7.3,37.26-11,55.89-1.19,6-2.24,12.09-1.86,18.3.17,2.93,1.52,2.85,3.46,1.44C692.62,369.83,694.67,369,693.83,372.67Z" transform="translate(-553.62 -257.19)"/><path class="cls-4" d="M668.74,268.08c.52,7.8-1,15.45-1.61,23.17-.2,2.33-.48,4.65-.72,7-.74,2-.19,4-.1,6.07a50.79,50.79,0,0,1-3.92,17.26c-4.88,15.35-9.35,30.81-13.28,46.43a50.83,50.83,0,0,1-3.45,9.69c-.72,1.49-1.82,2.27-3.48,1.89s-1.48-1.76-1.57-3c-.48-7.33,1.28-14.38,2.59-21.49,4.79-26,11.4-51.57,17.3-77.31.65-2.82,1.23-5.65,1.84-8.48.66-.84.28-2.11,1.18-2.85C666.27,263.84,667.75,265.21,668.74,268.08Z" transform="translate(-553.62 -257.19)"/><path class="cls-5" d="M717.75,308.23c.68-9.49,3.36-18.63,4.92-28,.45-2.63,1.21-5.22,1.82-7.82.79-2,1.32-4.59,4.24-3.79,2.7.74,1.34,3.31,1.58,5.11a4.56,4.56,0,0,1-.41,3.15c-.1,5.78-1.72,11.31-2.73,16.94-1.2,6.68-2.6,13.33-3.91,20-1.12,1.35-.1,3.12-.89,4.53l0-.07c-2.68,3.89-3.68,3.86-5.75-.18,0-.7.09-1.4.14-2.1C718.09,313.54,716.55,310.71,717.75,308.23Z" transform="translate(-553.62 -257.19)"/><path class="cls-6" d="M620.92,327a53.79,53.79,0,0,1,2-17.62c1.23-.21,1.1-1.85,2.24-2.16,5.85-11.47,12.2-22.62,20.64-32.45a14,14,0,0,1,3.42-3.44c.35-.36.72-.7,1.09-1l0,0a8.61,8.61,0,0,1,1.08-1l0,0c1-.56,1.89-1.85,3.24-.85.72.53.38,1.23-.09,1.82l0,.05c-.32.39-.65.76-1,1.12h0a4.34,4.34,0,0,0-1,1.2c-10.52,12.53-18.42,26.67-25.79,41.19C624.52,318.07,623.81,323,620.92,327Z" transform="translate(-553.62 -257.19)"/><path class="cls-7" d="M702.56,268.07c-3.83-3.25-3.83-3.25-6.35,2.34l-.62-3.12c-8,7.8-12.66,17.53-19,26-1.23.05-2,1.93-3.51.85a172.86,172.86,0,0,1,19.68-28.45,6.81,6.81,0,0,1,7-2.07C702,264.14,702.93,265.73,702.56,268.07Z" transform="translate(-553.62 -257.19)"/><path class="cls-8" d="M564,352.78a199.33,199.33,0,0,1,15.23-15.12c2.18-.64,4.47-1.46,3.56,2.42-3.63,5.8-8.75,10.12-14.16,14.14C566.76,354.66,563.8,358.74,564,352.78Z" transform="translate(-553.62 -257.19)"/><path class="cls-9" d="M737.4,335.57c-1.61,7.32-3,14.7-5.26,21.87-.35-.7,0-1.73-1-2.1-.51.28-1,.57-1.06,1.26l.06-.06c-1.3.61-1.53,2.1-2.48,3l-.05.06a12.9,12.9,0,0,1-1,1.08l0,0-1,1.07,0,0c-1.32.56-2.77,2.59-4,1-1.37-1.73,1.32-2.77,1.82-4.3l0,0a4.32,4.32,0,0,0,1-1.18l0,0a1.59,1.59,0,0,0,1-1.26l-.07.07c1-.29.73-1.46,1.34-2h0a2.23,2.23,0,0,0,.94-1.41Z" transform="translate(-553.62 -257.19)"/><path class="cls-10" d="M752.92,347.83c4.71-6.11,9.44-12.2,14.11-18.33,1.53-2,2.9-4.12,4.38-6.16.81-1.1,1.35-2.58,4.05-2.54-6.26,9.89-13.44,18.51-19.61,27.8C755,347.87,753.74,348.67,752.92,347.83Z" transform="translate(-553.62 -257.19)"/><path class="cls-11" d="M662.39,321.56l2.91-17.72c1.71,2.34,1.46-1.11,2.47-.82l1.09-1.18a3.89,3.89,0,0,0,.92-1.21l-.07.06c.88-.48.68-1.53,1.15-2.22l0,0c.85-.49.65-1.54,1.15-2.21h0A2,2,0,0,1,674,296a1.47,1.47,0,0,1,.62,1.25,11.93,11.93,0,0,0-1.36,2.57l0-.07c-.92.56-.7,1.64-1.1,2.44a1,1,0,0,1-.22.79,2.82,2.82,0,0,0-.88,1.43A141.85,141.85,0,0,1,662.39,321.56Z" transform="translate(-553.62 -257.19)"/><path class="cls-12" d="M617.66,281.18a16.86,16.86,0,0,1-2.15,8.81c-1.75-1-1.67.85-2,1.51-2.78,5.39-5.39,10.88-8.15,16.28-.88,1.73-1.42,3.7-3,5a2.62,2.62,0,0,1-1.18-2.29c1.93-4.84,4.94-9.1,7.63-13.49C611.93,291.81,613.83,286,617.66,281.18Z" transform="translate(-553.62 -257.19)"/><path class="cls-13" d="M693.83,372.67c.14-2.6-2-1.61-3.22-2.05,6.16-3.82,9.35-10.13,13.35-15.8,1.45-2.06,2.23-4.9,6-6.16-5.29,8.62-10,16.57-15.66,23.84C694.25,372.61,694,372.61,693.83,372.67Z" transform="translate(-553.62 -257.19)"/><path class="cls-14" d="M717.69,350.92c0,2.09,0,4.19.1,6.29.06,1.77.16,3.55,2.1,4.44,0,3.22-2.5,2-4.13,2.21-1.93-6.07-3.33-12.19-1.3-18.54a2.92,2.92,0,0,1,1.21,1.88C716.74,348.22,714.06,351.28,717.69,350.92Z" transform="translate(-553.62 -257.19)"/><path class="cls-15" d="M716.65,318.12c2.72,2.54,2.72,2.54,5.75.18a19.16,19.16,0,0,1-1.17,7.57c-1.21,1.2-.26,4.55-3.44,3.74-2.55-.66-1.53-2.94-1.54-4.58,0-2.33-.4-4.69.33-7Z" transform="translate(-553.62 -257.19)"/><path class="cls-16" d="M654.58,270.17c-.28-2.83-2.14-.53-3.15-1,1-2.28,3.19-3.29,5.1-4.56a2,2,0,0,0,1.29-1h0a4.66,4.66,0,0,0,1.16-1h0a6.54,6.54,0,0,1,1.11-.92,1.83,1.83,0,0,1,.82-.32,2.66,2.66,0,0,0,1.34-.87,2,2,0,0,1,.9-.21,4,4,0,0,1,3.58,0,1.29,1.29,0,0,1,1,1.16c-1.19,1.26-2.35,2.58-4.37,2.19l-.18.2c-.62-1-1.28-.85-2-.07l0,0a2.6,2.6,0,0,0-1.12,1.08h0A3.11,3.11,0,0,0,659,266,13.44,13.44,0,0,1,654.58,270.17Z" transform="translate(-553.62 -257.19)"/><path class="cls-17" d="M716.58,318c0,2.68.1,5.37.17,8,0,1.07-.08,2.31,1.23,2.69s1.74-.76,2.18-1.77c.19-.45.71-.77,1.07-1.14a12.48,12.48,0,0,1-1,6.57c-1.38,1.59-2.84,2.68-4.85.92a16.75,16.75,0,0,1,.12-6.58C715.8,323.86,715.27,320.83,716.58,318Z" transform="translate(-553.62 -257.19)"/><path class="cls-18" d="M598.05,319.49a16,16,0,0,1-4.38,6.42c-1.13-.69-2.46.89-3.55-.31,1.59-3.31,4.19-5.85,6.52-8.59.65-.53,1.35-1.41,2.19-1s.88,1.36.19,2.15l0,0A3.83,3.83,0,0,0,598.05,319.49Z" transform="translate(-553.62 -257.19)"/><path class="cls-19" d="M564,352.78c.52,3.79,3.06,1.05,4.63,1.44a13.8,13.8,0,0,1-4.62,4.24c-.39.76-1.56.45-1.85,1.35l0,0c-.58.08-.88.54-1.23.93l0,0c-.92.54-1.95.89-2.83.15-1.14-1,0-1.78.42-2.61v0c.71-.08,1-.55,1.17-1.18A16,16,0,0,1,564,352.78Z" transform="translate(-553.62 -257.19)"/><path class="cls-20" d="M729.9,276.91c0-1.43-.09-2.86-.17-4.29-.06-1.2.36-2.73-1.25-3.18-1.45-.4-2.28.63-2.93,1.81a6.56,6.56,0,0,1-1.06,1.19c-.38-2,.62-3.64,1.07-5.44.55-.66.41-1.59.89-2.29h0c1.76-.73,3.32-.77,4.3,1.23C731.15,269.64,731.38,273.34,729.9,276.91Z" transform="translate(-553.62 -257.19)"/><path class="cls-21" d="M752.92,347.83c1,.25,2.65-2.12,2.93.77-2.45,3-4,6.65-7.27,9,.34-2.71.63-5.43,2.07-7.85Z" transform="translate(-553.62 -257.19)"/><path class="cls-22" d="M714.71,347.5c-.08-.73-.17-1.45-.25-2.18.07-2.13.13-4.26.2-6.39a1,1,0,0,1,1-.47,14.35,14.35,0,0,1,2.33.74,5.46,5.46,0,0,1,.93.8l-.17,2.19c-.92,1.34.11,3.08-.89,4.4l0,0C717,347.46,716.31,349,714.71,347.5Z" transform="translate(-553.62 -257.19)"/><path class="cls-23" d="M582.75,340.08c-.19-2.27-2-2.23-3.56-2.42.54-1.54,1.82-2.39,3-3.3,1.59-.46,2.09-3.07,4.27-2.26,1.27.48,1.17,1.52.65,2.55v0a1.66,1.66,0,0,0-1,1.4A9,9,0,0,1,582.75,340.08Z" transform="translate(-553.62 -257.19)"/><path class="cls-24" d="M715.76,363.86c.89-1.66,3.39-.29,4.13-2.21,1.14-1,1.91-2.45,3.38-3.11.21,1.48-1.06,2.45-1.56,3.7,1.55.71,2.5-.78,3.73-.44C721.53,365.81,720.17,366.1,715.76,363.86Z" transform="translate(-553.62 -257.19)"/><path class="cls-25" d="M663.37,263.69c1.18-1.26,2.35-2.58,4.37-2.19,1.44,2,1.42,4.27,1,6.58-1.42-2.07-3.08-2.85-5.25-1a.85.85,0,0,1-.41-1.34C663.17,265.06,663.27,264.38,663.37,263.69Z" transform="translate(-553.62 -257.19)"/><path class="cls-26" d="M717.83,340a2.28,2.28,0,0,1-2.22-1.12,6.1,6.1,0,0,1,.15-5.49c1.61.33,3-.41,4.43-.94l-.25,2.12c-1.06,1.32,0,3.1-1,4.43l0,0C718.61,339.28,718.22,339.64,717.83,340Z" transform="translate(-553.62 -257.19)"/><path class="cls-27" d="M714.71,347.5c1.22.22,2.13-.61,3.19-.94l-.21,4.36c-1.38.83-.49,2.77-2.05,3.91C713.69,352.54,714.88,349.9,714.71,347.5Z" transform="translate(-553.62 -257.19)"/><path class="cls-28" d="M587.16,334.65c-.31-1.61-.9-2.56-2.68-1.33a14.29,14.29,0,0,1-2.24,1A6.79,6.79,0,0,1,585,331.3a3.92,3.92,0,0,1,1-1l.07-.08a6.22,6.22,0,0,1,1-1l0,0c1.54-.8,3-1.39,3.37,1.17v0c-.84.4-.56,1.52-1.29,2l-.06.09c-.28.43-.64.79-.91,1.23A1.32,1.32,0,0,1,587.16,334.65Z" transform="translate(-553.62 -257.19)"/><path class="cls-29" d="M558.48,358.27c-.81,2.4.72,2.5,2.41,2.46-1.86,2.13-4.06,2.94-7.27,1.89A11.37,11.37,0,0,1,558.48,358.27Z" transform="translate(-553.62 -257.19)"/><path class="cls-30" d="M590.47,330.29c-.81-1.28-2.11-1.17-3.37-1.17a4.23,4.23,0,0,1,1.89-2.33,1.58,1.58,0,0,0,1.17-1.14l0,0a11.89,11.89,0,0,0,1.77-.82c1.53-1,1.55.18,1.78,1.13v0c-.79.44-.49,1.55-1.23,2l-.05.07c-.29.43-.66.8-.91,1.26Z" transform="translate(-553.62 -257.19)"/><path class="cls-31" d="M599,318.17c.05-2.13-1.29-1.38-2.38-1.16.29-1.79,1.74-2.87,2.62-4.29a4.1,4.1,0,0,1,.88-1l0,0c.32-.41.8-.67,1-1.16l0,0a2.46,2.46,0,0,1,1.18,2.28h0a2.66,2.66,0,0,0-1,1.35,1.85,1.85,0,0,1-.17.83,3.88,3.88,0,0,0-1,1.27A2.2,2.2,0,0,1,599,318.17Z" transform="translate(-553.62 -257.19)"/><path class="cls-27" d="M715.76,333.38l-.15,5.49-1,.06c0-4.07-.75-8.19.8-12.15Z" transform="translate(-553.62 -257.19)"/><path class="cls-32" d="M667.77,303a5.59,5.59,0,0,1-1.54,3.33c-1.13-.55-.39-1.8-.93-2.51.29-1.88-.1-3.9,1.11-5.61C667,299.77,666,301.8,667.77,303Z" transform="translate(-553.62 -257.19)"/><path class="cls-33" d="M674.25,296.4l-2.32-.09a1.79,1.79,0,0,1,.2-1,8.34,8.34,0,0,0,.94-1.19h0c1.29.21,1.87-2.5,3.51-.85a3.35,3.35,0,0,1-.25.94c-.55.62-.34,1.59-1,2.16h0C675,296.94,674.61,296.92,674.25,296.4Z" transform="translate(-553.62 -257.19)"/><path class="cls-15" d="M717.75,308.23c0,2.63.91,5.38-1,7.79C716.59,313.35,716.56,310.72,717.75,308.23Z" transform="translate(-553.62 -257.19)"/><path class="cls-34" d="M625.12,307.22c-.51,1,0,3-2.24,2.16.16-1.53,0-3.14,1.08-4.45C624.34,305.7,624.22,306.72,625.12,307.22Z" transform="translate(-553.62 -257.19)"/><path class="cls-35" d="M730.76,265.93a8.68,8.68,0,0,0-4.3-1.23C729.07,262.7,729.87,262.93,730.76,265.93Z" transform="translate(-553.62 -257.19)"/><path class="cls-24" d="M727.61,359.54c.08-1.62.75-2.75,2.48-3A4.27,4.27,0,0,1,727.61,359.54Z" transform="translate(-553.62 -257.19)"/><path class="cls-27" d="M717.88,346.59c0-1.53-.52-3.16.89-4.4C718.88,343.74,719.11,345.31,717.88,346.59Z" transform="translate(-553.62 -257.19)"/><path class="cls-15" d="M722.37,318.37c-.26-1.62-.64-3.26.89-4.53C723.42,315.44,723.46,317,722.37,318.37Z" transform="translate(-553.62 -257.19)"/><path class="cls-36" d="M719,339c0-1.54-.56-3.21,1-4.43C720,336.11,720.15,337.7,719,339Z" transform="translate(-553.62 -257.19)"/><path class="cls-37" d="M666.73,260.34l-3.58,0A2.31,2.31,0,0,1,666.73,260.34Z" transform="translate(-553.62 -257.19)"/><path class="cls-37" d="M663.08,265.75c.14.44.27.89.41,1.34l-1.15,2.16A3.51,3.51,0,0,1,663.08,265.75Z" transform="translate(-553.62 -257.19)"/><path class="cls-7" d="M674.25,296.4h1a2.31,2.31,0,0,1-1.06,2.19c-.3-.21-.42-.44-.35-.69s.15-.39.24-.39Z" transform="translate(-553.62 -257.19)"/><path class="cls-33" d="M672,296.31c.07,1-.08,1.83-1.15,2.21A2.27,2.27,0,0,1,672,296.31Z" transform="translate(-553.62 -257.19)"/><path class="cls-33" d="M674.13,297.5c0,.36.07.72.11,1.08l-1,1.22A2.15,2.15,0,0,1,674.13,297.5Z" transform="translate(-553.62 -257.19)"/><path class="cls-33" d="M670.86,298.47c.09,1-.06,1.84-1.15,2.22A2.29,2.29,0,0,1,670.86,298.47Z" transform="translate(-553.62 -257.19)"/><path class="cls-18" d="M592.44,327.9a2,2,0,0,1,1.23-2A2.17,2.17,0,0,1,592.44,327.9Z" transform="translate(-553.62 -257.19)"/><path class="cls-7" d="M675.31,296.38a2.21,2.21,0,0,1,1-2.16A2.1,2.1,0,0,1,675.31,296.38Z" transform="translate(-553.62 -257.19)"/><path class="cls-33" d="M672.2,302.17c-.12-1,0-2,1.1-2.44A2.8,2.8,0,0,1,672.2,302.17Z" transform="translate(-553.62 -257.19)"/><path class="cls-29" d="M562.12,359.81a1.71,1.71,0,0,1,1.85-1.35A2.1,2.1,0,0,1,562.12,359.81Z" transform="translate(-553.62 -257.19)"/><path class="cls-24" d="M726.52,354.15c0,1-.19,1.82-1.34,2A2.31,2.31,0,0,1,726.52,354.15Z" transform="translate(-553.62 -257.19)"/><path class="cls-35" d="M726.45,264.71a1.92,1.92,0,0,1-.89,2.29A1.89,1.89,0,0,1,726.45,264.71Z" transform="translate(-553.62 -257.19)"/><path class="cls-37" d="M661.23,263.82c.69-1.18,1.36-1.53,2,.07Z" transform="translate(-553.62 -257.19)"/><path class="cls-30" d="M589.17,332.25a1.89,1.89,0,0,1,1.29-2A2.19,2.19,0,0,1,589.17,332.25Z" transform="translate(-553.62 -257.19)"/><path class="cls-37" d="M659,262.62l-1.16,1Z" transform="translate(-553.62 -257.19)"/><path class="cls-30" d="M588.2,333.57a1.41,1.41,0,0,1,.91-1.23A1.41,1.41,0,0,1,588.2,333.57Z" transform="translate(-553.62 -257.19)"/><path class="cls-16" d="M652.51,272.55a1.43,1.43,0,0,1,1-1.2A1.46,1.46,0,0,1,652.51,272.55Z" transform="translate(-553.62 -257.19)"/><path class="cls-30" d="M586,330.29l-1,1A1.1,1.1,0,0,1,586,330.29Z" transform="translate(-553.62 -257.19)"/><path class="cls-12" d="M600.21,316.21l1-1.28Z" transform="translate(-553.62 -257.19)"/><path class="cls-16" d="M653.54,271.34a1.39,1.39,0,0,1,1-1.12A1.18,1.18,0,0,1,653.54,271.34Z" transform="translate(-553.62 -257.19)"/><path class="cls-16" d="M650.27,270.29a1.41,1.41,0,0,1-1.09,1A1.2,1.2,0,0,1,650.27,270.29Z" transform="translate(-553.62 -257.19)"/><path class="cls-37" d="M660.09,261.69l-1.11.92A1.18,1.18,0,0,1,660.09,261.69Z" transform="translate(-553.62 -257.19)"/><path class="cls-36" d="M717.83,340l1.2-1a1.22,1.22,0,0,1-.09,1.05Z" transform="translate(-553.62 -257.19)"/><path class="cls-12" d="M601.34,314.11a1.56,1.56,0,0,1,1-1.35Z" transform="translate(-553.62 -257.19)"/><path class="cls-16" d="M651.38,269.24l-1.08,1A1.14,1.14,0,0,1,651.38,269.24Z" transform="translate(-553.62 -257.19)"/><path class="cls-12" d="M600.14,311.7l-.88,1Z" transform="translate(-553.62 -257.19)"/><path class="cls-7" d="M673.07,294.13l-.94,1.19A1.32,1.32,0,0,1,673.07,294.13Z" transform="translate(-553.62 -257.19)"/><path class="cls-37" d="M659,266a1.42,1.42,0,0,1,1.1-1.12Z" transform="translate(-553.62 -257.19)"/><path class="cls-24" d="M727.47,352.73a1.44,1.44,0,0,1-.94,1.41A1.5,1.5,0,0,1,727.47,352.73Z" transform="translate(-553.62 -257.19)"/><path class="cls-12" d="M601.18,310.51l-1,1.16Z" transform="translate(-553.62 -257.19)"/><path class="cls-30" d="M587.06,329.16l-1,1A1.11,1.11,0,0,1,587.06,329.16Z" transform="translate(-553.62 -257.19)"/><path class="cls-24" d="M730,356.6a1.25,1.25,0,0,1,1.06-1.26A1.34,1.34,0,0,1,730,356.6Z" transform="translate(-553.62 -257.19)"/><path class="cls-37" d="M662.25,260.5a1.47,1.47,0,0,1-1.34.87A1.56,1.56,0,0,1,662.25,260.5Z" transform="translate(-553.62 -257.19)"/><path class="cls-24" d="M725.25,356.1a1.23,1.23,0,0,1-1,1.26A1.28,1.28,0,0,1,725.25,356.1Z" transform="translate(-553.62 -257.19)"/><path class="cls-33" d="M671.1,304.39A1.56,1.56,0,0,1,672,303Z" transform="translate(-553.62 -257.19)"/><path class="cls-29" d="M559.64,357.13a1.21,1.21,0,0,1-1.17,1.18A1.47,1.47,0,0,1,559.64,357.13Z" transform="translate(-553.62 -257.19)"/><path class="cls-24" d="M724.29,357.33a1.36,1.36,0,0,1-1,1.18A1.19,1.19,0,0,1,724.29,357.33Z" transform="translate(-553.62 -257.19)"/><path class="cls-37" d="M660.13,264.87a1.4,1.4,0,0,1,1.12-1.08Z" transform="translate(-553.62 -257.19)"/><path class="cls-18" d="M591.48,329.23l.91-1.26Z" transform="translate(-553.62 -257.19)"/><path class="cls-29" d="M560.92,360.71a1.24,1.24,0,0,1,1.23-.93A1.21,1.21,0,0,1,560.92,360.71Z" transform="translate(-553.62 -257.19)"/><path class="cls-24" d="M726.55,360.68a1.34,1.34,0,0,1,1-1.08A1.11,1.11,0,0,1,726.55,360.68Z" transform="translate(-553.62 -257.19)"/><path class="cls-24" d="M725.47,361.78a1.32,1.32,0,0,1,1-1.07A1.13,1.13,0,0,1,725.47,361.78Z" transform="translate(-553.62 -257.19)"/><path class="cls-37" d="M657.82,263.62a1.39,1.39,0,0,1-1.28,1Z" transform="translate(-553.62 -257.19)"/><path class="cls-33" d="M669.78,300.63a1.42,1.42,0,0,1-.92,1.21A1.3,1.3,0,0,1,669.78,300.63Z" transform="translate(-553.62 -257.19)"/><path class="cls-31" d="M598.05,319.49a1.57,1.57,0,0,1,1-1.3Z" transform="translate(-553.62 -257.19)"/><path class="cls-18" d="M590.16,325.65a1.28,1.28,0,0,1-1.17,1.14Z" transform="translate(-553.62 -257.19)"/><path class="cls-28" d="M586.16,336a1.38,1.38,0,0,1,1-1.4A1.6,1.6,0,0,1,586.16,336Z" transform="translate(-553.62 -257.19)"/><path class="cls-38" d="M723.42,390.27,722,388.91c.42-.69.83-1.38,1.24-2.08,1-.27,1.49.09,1.3,1.17A3.39,3.39,0,0,1,723.42,390.27Z" transform="translate(-553.62 -257.19)"/><path class="cls-39" d="M724.57,388a1.7,1.7,0,0,0-1.3-1.17c.29-.83,1-1.83,1.69-1.36C726,386.17,725.34,387.23,724.57,388Z" transform="translate(-553.62 -257.19)"/></g></svg>